<svg width="21" height="26" viewBox="0 0 21 26" fill="none" xmlns="http://www.w3.org/2000/svg">
<path d="M3.168 26V16.748H0.36V14.444H3.168V11.492H0.36V9.188H3.168V0.295998H6.912L10.332 9.188H14.58V0.295998H17.424V9.188H20.232V11.492H17.424V14.444H20.232V16.748H17.424V26H13.644L10.224 16.748H5.976V26H3.168ZM5.976 14.444H9.36L8.28 11.492H5.904L5.976 14.444ZM14.58 20.924H14.724L14.616 16.748H13.104L14.58 20.924ZM5.904 9.188H7.416L5.904 4.724H5.76L5.904 9.188ZM12.24 14.444H14.652L14.58 11.492H11.16L12.24 14.444Z" fill="black"/>
</svg>
