<svg width="28" height="36" viewBox="0 0 28 36" fill="none" xmlns="http://www.w3.org/2000/svg">
<path d="M0.666626 35.6667C0.666626 32.1304 2.07138 28.739 4.57187 26.2386C7.07235 23.7381 10.4637 22.3333 14 22.3333C17.5362 22.3333 20.9276 23.7381 23.428 26.2386C25.9285 28.739 27.3333 32.1304 27.3333 35.6667H24C24 33.0145 22.9464 30.471 21.071 28.5956C19.1957 26.7202 16.6521 25.6667 14 25.6667C11.3478 25.6667 8.80426 26.7202 6.92889 28.5956C5.05353 30.471 3.99996 33.0145 3.99996 35.6667H0.666626ZM14 20.6667C8.47496 20.6667 3.99996 16.1917 3.99996 10.6667C3.99996 5.14166 8.47496 0.666656 14 0.666656C19.525 0.666656 24 5.14166 24 10.6667C24 16.1917 19.525 20.6667 14 20.6667ZM14 17.3333C17.6833 17.3333 20.6666 14.35 20.6666 10.6667C20.6666 6.98332 17.6833 3.99999 14 3.99999C10.3166 3.99999 7.33329 6.98332 7.33329 10.6667C7.33329 14.35 10.3166 17.3333 14 17.3333Z" fill="black"/>
</svg>
