<svg width="30" height="38" viewBox="0 0 30 38" fill="none" xmlns="http://www.w3.org/2000/svg">
<path d="M3.75 37.5C2.71875 37.5 1.83625 37.1331 1.1025 36.3994C0.36875 35.6656 0.00125 34.7825 0 33.75V11.25C0 10.2188 0.3675 9.33625 1.1025 8.6025C1.8375 7.86875 2.72 7.50125 3.75 7.5H7.5C7.5 5.4375 8.23438 3.67188 9.70312 2.20312C11.1719 0.734375 12.9375 0 15 0C17.0625 0 18.8281 0.734375 20.2969 2.20312C21.7656 3.67188 22.5 5.4375 22.5 7.5H26.25C27.2812 7.5 28.1644 7.8675 28.8994 8.6025C29.6344 9.3375 30.0012 10.22 30 11.25V33.75C30 34.7812 29.6331 35.6644 28.8994 36.3994C28.1656 37.1344 27.2825 37.5013 26.25 37.5H3.75ZM3.75 33.75H26.25V11.25H22.5V15C22.5 15.5312 22.32 15.9769 21.96 16.3369C21.6 16.6969 21.155 16.8762 20.625 16.875C20.095 16.8738 19.65 16.6938 19.29 16.335C18.93 15.9762 18.75 15.5312 18.75 15V11.25H11.25V15C11.25 15.5312 11.07 15.9769 10.71 16.3369C10.35 16.6969 9.905 16.8762 9.375 16.875C8.845 16.8738 8.4 16.6938 8.04 16.335C7.68 15.9762 7.5 15.5312 7.5 15V11.25H3.75V33.75ZM11.25 7.5H18.75C18.75 6.46875 18.3831 5.58625 17.6494 4.8525C16.9156 4.11875 16.0325 3.75125 15 3.75C13.9675 3.74875 13.085 4.11625 12.3525 4.8525C11.62 5.58875 11.2525 6.47125 11.25 7.5Z" fill="black"/>
</svg>
